<svg width="190" height="190" viewBox="0 0 190 190" fill="none" xmlns="http://www.w3.org/2000/svg">
<g filter="url(#filter0_f)">
<circle cx="95" cy="95" r="75" fill="black" fill-opacity="0.88"/>
</g>
<path d="M162 95.5C162 132.779 131.779 163 94.5 163C57.2208 163 27 132.779 27 95.5C27 58.2208 57.2208 28 94.5 28C131.779 28 162 58.2208 162 95.5Z" fill="#B78267" fill-opacity="0.97"/>
<path d="M56.8801 81.878H58.4951V78.019H58.3931C58.0304 78.223 57.6451 78.376 57.2371 78.478C56.8291 78.5687 56.3361 78.614 55.7581 78.614C54.4774 78.614 53.5254 78.325 52.9021 77.747C52.2788 77.169 51.9671 76.2623 51.9671 75.027V72.256H50.7941V71.134H55.8261V72.256H54.7211V74.959C54.7211 75.4237 54.7551 75.8203 54.8231 76.149C54.9024 76.4663 55.0158 76.7213 55.1631 76.914C55.3218 77.1067 55.5201 77.2483 55.7581 77.339C56.0074 77.4183 56.3078 77.458 56.6591 77.458C57.4411 77.458 58.0531 77.271 58.4951 76.897V72.256H57.3901V71.134H62.4391V72.256H61.2491V81.878H62.4391V83H56.8801V81.878ZM68.0123 81.878H69.0323V75.214H68.0123V74.092H72.5003V75.214H71.5483V77.679L71.4633 79.651H71.5483L74.8463 75.622V75.214H73.8943V74.092H78.3823V75.214H77.3623V81.878H78.3823V83H73.8943V81.878H74.8463V79.413L74.9313 77.441H74.8463L71.5483 81.47V81.878H72.5003V83H68.0123V81.878ZM86.0254 81.878H87.0454V75.282H85.3794V76.744H83.7134V74.092H92.9614V76.744H91.2954V75.282H89.6294V81.878H90.6494V83H86.0254V81.878ZM100.98 83.204C100.016 83.204 99.3136 82.983 98.8716 82.541C98.4409 82.0877 98.2256 81.4587 98.2256 80.654C98.2256 78.8973 99.5232 78.019 102.119 78.019H103.309V77.05C103.309 76.3587 103.178 75.8373 102.918 75.486C102.657 75.1347 102.204 74.959 101.558 74.959C101.32 74.959 101.116 74.976 100.946 75.01C100.776 75.044 100.628 75.0893 100.504 75.146V75.231C100.617 75.2877 100.725 75.3897 100.827 75.537C100.94 75.6843 100.997 75.8827 100.997 76.132C100.997 76.472 100.889 76.761 100.674 76.999C100.458 77.2257 100.135 77.339 99.7046 77.339C99.3646 77.339 99.0812 77.22 98.8546 76.982C98.6279 76.744 98.5146 76.4437 98.5146 76.081C98.5146 75.809 98.5939 75.5427 98.7526 75.282C98.9112 75.01 99.1492 74.772 99.4666 74.568C99.7839 74.364 100.175 74.1997 100.64 74.075C101.116 73.9503 101.66 73.888 102.272 73.888C103.507 73.888 104.419 74.1543 105.009 74.687C105.598 75.2083 105.893 75.9507 105.893 76.914V81.878H106.913V82.847C106.72 82.9603 106.471 83.0453 106.165 83.102C105.859 83.17 105.541 83.204 105.213 83.204C104.589 83.204 104.147 83.0623 103.887 82.779C103.637 82.4843 103.513 82.1217 103.513 81.691V81.657H103.411C103.331 81.8497 103.229 82.0367 103.105 82.218C102.991 82.3993 102.838 82.5637 102.646 82.711C102.464 82.8583 102.238 82.9773 101.966 83.068C101.694 83.1587 101.365 83.204 100.98 83.204ZM101.949 81.674C102.368 81.674 102.697 81.5777 102.935 81.385C103.184 81.1923 103.309 80.858 103.309 80.382V79.039H102.391C101.847 79.039 101.439 79.1523 101.167 79.379C100.906 79.6057 100.776 79.9287 100.776 80.348V80.62C100.776 80.9827 100.883 81.249 101.099 81.419C101.314 81.589 101.597 81.674 101.949 81.674ZM114.016 81.878H115.036V75.282H113.37V76.744H111.704V74.092H120.952V76.744H119.286V75.282H117.62V81.878H118.64V83H114.016V81.878ZM126.284 81.878H127.304V75.214H126.284V74.092H130.908V75.214H129.888V77.186H131.843C132.84 77.186 133.628 77.4353 134.206 77.934C134.784 78.4327 135.073 79.1353 135.073 80.042C135.073 81.0053 134.784 81.742 134.206 82.252C133.628 82.7507 132.84 83 131.843 83H126.284V81.878ZM130.84 81.81C131.384 81.81 131.786 81.7023 132.047 81.487C132.319 81.2717 132.455 80.909 132.455 80.399V79.787C132.455 79.277 132.319 78.9143 132.047 78.699C131.786 78.4837 131.384 78.376 130.84 78.376H129.888V81.81H130.84ZM60.9858 105.81H62.2438C62.7651 105.153 63.1731 104.359 63.4678 103.43C63.7738 102.501 63.9268 101.373 63.9268 100.047V99.214H62.6008V98.092H70.9308V99.214H69.9108V105.81H71.6448V109.55H69.6388V107H62.9918V109.55H60.9858V105.81ZM67.3268 105.81V99.282H65.1508V100.132C65.1508 101.401 65.0205 102.512 64.7598 103.464C64.4991 104.405 64.1478 105.187 63.7058 105.81H67.3268ZM79.4058 107.204C78.4425 107.204 77.7398 106.983 77.2978 106.541C76.8672 106.088 76.6518 105.459 76.6518 104.654C76.6518 102.897 77.9495 102.019 80.5448 102.019H81.7348V101.05C81.7348 100.359 81.6045 99.8373 81.3438 99.486C81.0832 99.1347 80.6298 98.959 79.9838 98.959C79.7458 98.959 79.5418 98.976 79.3718 99.01C79.2018 99.044 79.0545 99.0893 78.9298 99.146V99.231C79.0432 99.2877 79.1508 99.3897 79.2528 99.537C79.3662 99.6843 79.4228 99.8827 79.4228 100.132C79.4228 100.472 79.3152 100.761 79.0998 100.999C78.8845 101.226 78.5615 101.339 78.1308 101.339C77.7908 101.339 77.5075 101.22 77.2808 100.982C77.0542 100.744 76.9408 100.444 76.9408 100.081C76.9408 99.809 77.0202 99.5427 77.1788 99.282C77.3375 99.01 77.5755 98.772 77.8928 98.568C78.2102 98.364 78.6012 98.1997 79.0658 98.075C79.5418 97.9503 80.0858 97.888 80.6978 97.888C81.9332 97.888 82.8455 98.1543 83.4348 98.687C84.0242 99.2083 84.3188 99.9507 84.3188 100.914V105.878H85.3388V106.847C85.1462 106.96 84.8968 107.045 84.5908 107.102C84.2848 107.17 83.9675 107.204 83.6388 107.204C83.0155 107.204 82.5735 107.062 82.3128 106.779C82.0635 106.484 81.9388 106.122 81.9388 105.691V105.657H81.8368C81.7575 105.85 81.6555 106.037 81.5308 106.218C81.4175 106.399 81.2645 106.564 81.0718 106.711C80.8905 106.858 80.6638 106.977 80.3918 107.068C80.1198 107.159 79.7912 107.204 79.4058 107.204ZM80.3748 105.674C80.7942 105.674 81.1228 105.578 81.3608 105.385C81.6102 105.192 81.7348 104.858 81.7348 104.382V103.039H80.8168C80.2728 103.039 79.8648 103.152 79.5928 103.379C79.3322 103.606 79.2018 103.929 79.2018 104.348V104.62C79.2018 104.983 79.3095 105.249 79.5248 105.419C79.7402 105.589 80.0235 105.674 80.3748 105.674ZM91.952 107.204C91.374 107.204 90.915 107.051 90.575 106.745C90.2463 106.428 90.082 106.031 90.082 105.555C90.082 105.147 90.201 104.818 90.439 104.569C90.677 104.32 91 104.195 91.408 104.195C91.782 104.195 92.0766 104.303 92.292 104.518C92.5186 104.722 92.632 104.988 92.632 105.317C92.632 105.51 92.5923 105.68 92.513 105.827C92.4336 105.963 92.3316 106.065 92.207 106.133V106.218C92.241 106.229 92.292 106.235 92.36 106.235C92.5526 106.235 92.7226 106.161 92.87 106.014C92.9946 105.889 93.108 105.725 93.21 105.521C93.312 105.306 93.4026 105.005 93.482 104.62C93.5613 104.235 93.618 103.742 93.652 103.141C93.6973 102.529 93.72 101.758 93.72 100.829V99.214H92.394V98.092H100.724V99.214H99.704V105.878H100.724V107H96.168V105.878H97.12V99.282H94.944V100.812C94.944 101.787 94.9156 102.597 94.859 103.243C94.8136 103.889 94.74 104.427 94.638 104.858C94.536 105.277 94.4113 105.617 94.264 105.878C94.1166 106.139 93.9466 106.365 93.754 106.558C93.346 106.989 92.7453 107.204 91.952 107.204ZM110.606 107.204C109.904 107.204 109.28 107.091 108.736 106.864C108.204 106.626 107.75 106.303 107.376 105.895C107.014 105.476 106.736 104.983 106.543 104.416C106.351 103.838 106.254 103.209 106.254 102.529C106.254 101.815 106.351 101.169 106.543 100.591C106.747 100.013 107.031 99.5257 107.393 99.129C107.767 98.7323 108.209 98.4263 108.719 98.211C109.241 97.9957 109.819 97.888 110.453 97.888C111.088 97.888 111.66 97.9843 112.17 98.177C112.68 98.3697 113.111 98.6473 113.462 99.01C113.825 99.3613 114.103 99.792 114.295 100.302C114.488 100.812 114.584 101.379 114.584 102.002V102.58H108.991V103.26C108.991 104.019 109.19 104.592 109.586 104.977C109.983 105.362 110.51 105.555 111.167 105.555C111.779 105.555 112.272 105.419 112.646 105.147C113.02 104.864 113.287 104.524 113.445 104.127L114.38 104.688C114.278 104.971 114.131 105.26 113.938 105.555C113.746 105.85 113.496 106.122 113.19 106.371C112.884 106.609 112.516 106.807 112.085 106.966C111.655 107.125 111.162 107.204 110.606 107.204ZM108.991 101.509H111.915V101.271C111.915 100.455 111.785 99.8827 111.524 99.554C111.264 99.2253 110.907 99.061 110.453 99.061C110 99.061 109.643 99.2253 109.382 99.554C109.122 99.8827 108.991 100.455 108.991 101.271V101.509ZM124.485 107.204C123.783 107.204 123.159 107.091 122.615 106.864C122.083 106.626 121.629 106.303 121.255 105.895C120.893 105.476 120.615 104.983 120.422 104.416C120.23 103.838 120.133 103.209 120.133 102.529C120.133 101.815 120.23 101.169 120.422 100.591C120.626 100.013 120.91 99.5257 121.272 99.129C121.646 98.7323 122.088 98.4263 122.598 98.211C123.12 97.9957 123.698 97.888 124.332 97.888C124.967 97.888 125.539 97.9843 126.049 98.177C126.559 98.3697 126.99 98.6473 127.341 99.01C127.704 99.3613 127.982 99.792 128.174 100.302C128.367 100.812 128.463 101.379 128.463 102.002V102.58H122.87V103.26C122.87 104.019 123.069 104.592 123.465 104.977C123.862 105.362 124.389 105.555 125.046 105.555C125.658 105.555 126.151 105.419 126.525 105.147C126.899 104.864 127.166 104.524 127.324 104.127L128.259 104.688C128.157 104.971 128.01 105.26 127.817 105.555C127.625 105.85 127.375 106.122 127.069 106.371C126.763 106.609 126.395 106.807 125.964 106.966C125.534 107.125 125.041 107.204 124.485 107.204ZM122.87 101.509H125.794V101.271C125.794 100.455 125.664 99.8827 125.403 99.554C125.143 99.2253 124.786 99.061 124.332 99.061C123.879 99.061 123.522 99.2253 123.261 99.554C123.001 99.8827 122.87 100.455 122.87 101.271V101.509Z" fill="#251B19"/>
<g filter="url(#filter1_d)">
<path d="M94.5 138L106 128H83L94.5 138Z" fill="black"/>
</g>
<defs>
<filter id="filter0_f" x="0" y="0" width="190" height="190" filterUnits="userSpaceOnUse" color-interpolation-filters="sRGB">
<feFlood flood-opacity="0" result="BackgroundImageFix"/>
<feBlend mode="normal" in="SourceGraphic" in2="BackgroundImageFix" result="shape"/>
<feGaussianBlur stdDeviation="10" result="effect1_foregroundBlur"/>
</filter>
<filter id="filter1_d" x="80" y="124" width="33" height="20" filterUnits="userSpaceOnUse" color-interpolation-filters="sRGB">
<feFlood flood-opacity="0" result="BackgroundImageFix"/>
<feColorMatrix in="SourceAlpha" type="matrix" values="0 0 0 0 0 0 0 0 0 0 0 0 0 0 0 0 0 0 127 0"/>
<feOffset dx="2" dy="1"/>
<feGaussianBlur stdDeviation="2.5"/>
<feColorMatrix type="matrix" values="0 0 0 0 0 0 0 0 0 0 0 0 0 0 0 0 0 0 0.25 0"/>
<feBlend mode="normal" in2="BackgroundImageFix" result="effect1_dropShadow"/>
<feBlend mode="normal" in="SourceGraphic" in2="effect1_dropShadow" result="shape"/>
</filter>
</defs>
</svg>
